<?xml version="1.0" standalone="no"?>
<!DOCTYPE svg PUBLIC "-//W3C//DTD SVG 20010904//EN"
 "http://www.w3.org/TR/2001/REC-SVG-20010904/DTD/svg10.dtd">
<svg version="1.0" xmlns="http://www.w3.org/2000/svg"
 width="194.000000pt" height="194.000000pt" viewBox="0 0 194.000000 194.000000"
 preserveAspectRatio="xMidYMid meet">
<metadata>
Created by potrace 1.11, written by Peter Selinger 2001-2013
</metadata>
<g transform="translate(0.000000,194.000000) scale(0.100000,-0.100000)"
fill="#000000" stroke="none">
<path d="M1440 1909 c-25 -11 -263 -108 -530 -216 -267 -107 -489 -199 -495
-204 -5 -6 -10 -65 -10 -134 0 -123 0 -124 25 -136 14 -6 113 -46 220 -89 107
-43 339 -136 515 -208 176 -71 330 -132 341 -136 21 -6 21 -4 18 56 -6 93 -30
167 -67 203 -22 21 -83 52 -197 97 -91 37 -248 100 -348 141 -101 41 -178 77
-170 79 91 36 651 264 676 275 62 29 112 165 103 281 -1 17 -28 14 -81 -9z"/>
<path d="M405 1124 c6 -95 31 -172 68 -209 24 -23 96 -57 277 -129 410 -164
442 -179 428 -187 -7 -4 -144 -60 -303 -124 -160 -64 -315 -128 -345 -141 -82
-37 -116 -98 -127 -233 -6 -69 -5 -74 13 -69 10 3 165 65 344 138 179 72 423
170 542 218 l218 87 0 132 0 131 -62 25 c-66 25 -643 258 -878 354 -74 30
-145 59 -157 64 -21 8 -22 7 -18 -57z"/>
</g>
</svg>
