<?xml version="1.0" encoding="utf-8"?>
<!-- Generator: Adobe Illustrator 20.0.0, SVG Export Plug-In . SVG Version: 6.00 Build 0)  -->
<svg version="1.1" id="Lager_1" xmlns="http://www.w3.org/2000/svg" xmlns:xlink="http://www.w3.org/1999/xlink" x="0px" y="0px"
	 viewBox="0 0 200 250" style="enable-background:new 0 0 200 250;" xml:space="preserve">
<style type="text/css">
	.st0{clip-path:url(#SVGID_2_);}
	.st1{clip-path:url(#SVGID_4_);}
	.st2{clip-path:url(#SVGID_6_);fill:url(#SVGID_7_);}
	.st3{clip-path:url(#SVGID_9_);fill:url(#SVGID_10_);}
	.st4{clip-path:url(#SVGID_12_);fill:url(#SVGID_13_);}
	.st5{clip-path:url(#SVGID_15_);fill:url(#SVGID_16_);}
	.st6{filter:url(#Adobe_OpacityMaskFilter);}
	.st7{clip-path:url(#SVGID_18_);}
	.st8{enable-background:new    ;}
	.st9{clip-path:url(#SVGID_21_);fill:#FFFFFF;}
	.st10{clip-path:url(#SVGID_18_);mask:url(#SVGID_19_);}
	.st11{clip-path:url(#SVGID_23_);}
	.st12{filter:url(#Adobe_OpacityMaskFilter_1_);}
	.st13{clip-path:url(#SVGID_25_);fill:url(#SVGID_26_);}
	.st14{clip-path:url(#SVGID_25_);fill:url(#SVGID_27_);}
	.st15{filter:url(#Adobe_OpacityMaskFilter_2_);}
	.st16{clip-path:url(#SVGID_29_);fill:url(#SVGID_31_);}
	.st17{clip-path:url(#SVGID_29_);mask:url(#SVGID_30_);fill:url(#SVGID_32_);}
	.st18{filter:url(#Adobe_OpacityMaskFilter_3_);}
	.st19{clip-path:url(#SVGID_34_);fill:url(#SVGID_36_);}
	.st20{clip-path:url(#SVGID_34_);mask:url(#SVGID_35_);fill:url(#SVGID_37_);}
</style>
<g id="Smart_vektorobjekt">
	<g>
		<defs>
			<rect id="SVGID_1_" x="35" y="28.4" width="130" height="193.2"/>
		</defs>
		<clipPath id="SVGID_2_">
			<use xlink:href="#SVGID_1_"  style="overflow:visible;"/>
		</clipPath>
		<g class="st0">
			<defs>
				<rect id="SVGID_3_" x="35" y="28.4" width="130" height="193.2"/>
			</defs>
			<clipPath id="SVGID_4_">
				<use xlink:href="#SVGID_3_"  style="overflow:visible;"/>
			</clipPath>
			<g class="st1">
				<defs>
					<path id="SVGID_5_" d="M54.7,133.6l69.1,27.9c0,0-56.2,22.7-69.1,27.9C41.8,194.6,43.5,219,43.5,219l111.3-45l0-25.5
						L43.5,103.6C43.4,130.9,54.7,133.6,54.7,133.6"/>
				</defs>
				<clipPath id="SVGID_6_">
					<use xlink:href="#SVGID_5_"  style="overflow:visible;"/>
				</clipPath>
				
					<linearGradient id="SVGID_7_" gradientUnits="userSpaceOnUse" x1="-409.7923" y1="-257.6963" x2="-408.7923" y2="-257.6963" gradientTransform="matrix(56.3295 250.5401 250.5401 -56.3295 87711.3516 88165.5078)">
					<stop  offset="0" style="stop-color:#FF9715"/>
					<stop  offset="1" style="stop-color:#D44000"/>
				</linearGradient>
				<polygon class="st2" points="149.3,79.4 179.5,213.4 47.2,243.2 17.1,109.2 				"/>
			</g>
			<g class="st1">
				<defs>
					<path id="SVGID_8_" d="M155.1,28.4L43.8,73.4l0,25.5l111.3,45c0,0,1.7-24.4-11.2-29.6C131,109,74.8,86.3,74.8,86.3l69.1-27.9
						C143.9,58.4,155.2,55.7,155.1,28.4z"/>
				</defs>
				<clipPath id="SVGID_9_">
					<use xlink:href="#SVGID_8_"  style="overflow:visible;"/>
				</clipPath>
				
					<linearGradient id="SVGID_10_" gradientUnits="userSpaceOnUse" x1="-409.7923" y1="-257.7282" x2="-408.7923" y2="-257.7282" gradientTransform="matrix(56.3295 250.5401 250.5401 -56.3295 87737.3906 88159.6562)">
					<stop  offset="0" style="stop-color:#FF9715"/>
					<stop  offset="1" style="stop-color:#D44000"/>
				</linearGradient>
				<polygon class="st3" points="151.4,4.2 181.5,138.2 49.3,168 19.1,34 				"/>
			</g>
			<g class="st1">
				<defs>
					<path id="SVGID_11_" d="M54.7,133.6l69.1,27.9c0,0-56.2,22.7-69.1,27.9C41.8,194.6,43.5,219,43.5,219l111.3-45l0-25.5
						L43.5,103.6C43.4,130.9,54.7,133.6,54.7,133.6"/>
				</defs>
				<clipPath id="SVGID_12_">
					<use xlink:href="#SVGID_11_"  style="overflow:visible;"/>
				</clipPath>
				
					<linearGradient id="SVGID_13_" gradientUnits="userSpaceOnUse" x1="-409.7923" y1="-257.6963" x2="-408.7923" y2="-257.6963" gradientTransform="matrix(56.3295 250.5401 250.5401 -56.3295 87711.3516 88165.5078)">
					<stop  offset="0" style="stop-color:#FF9715"/>
					<stop  offset="1" style="stop-color:#D44000"/>
				</linearGradient>
				<polygon class="st4" points="149.3,79.4 179.5,213.4 47.2,243.2 17.1,109.2 				"/>
			</g>
			<g class="st1">
				<defs>
					<path id="SVGID_14_" d="M155.1,28.4L43.8,73.4l0,25.5l111.3,45c0,0,1.7-24.4-11.2-29.6C131,109,74.8,86.3,74.8,86.3l69.1-27.9
						C143.9,58.4,155.2,55.7,155.1,28.4z"/>
				</defs>
				<clipPath id="SVGID_15_">
					<use xlink:href="#SVGID_14_"  style="overflow:visible;"/>
				</clipPath>
				
					<linearGradient id="SVGID_16_" gradientUnits="userSpaceOnUse" x1="-409.7923" y1="-257.7282" x2="-408.7923" y2="-257.7282" gradientTransform="matrix(56.3295 250.5401 250.5401 -56.3295 87737.3906 88159.6562)">
					<stop  offset="0" style="stop-color:#FF9715"/>
					<stop  offset="1" style="stop-color:#D44000"/>
				</linearGradient>
				<polygon class="st5" points="151.4,4.2 181.5,138.2 49.3,168 19.1,34 				"/>
			</g>
			<g class="st1">
				<defs>
					<rect id="SVGID_17_" x="35" y="28.4" width="130" height="193.2"/>
				</defs>
				<clipPath id="SVGID_18_">
					<use xlink:href="#SVGID_17_"  style="overflow:visible;"/>
				</clipPath>
				<defs>
					<filter id="Adobe_OpacityMaskFilter" filterUnits="userSpaceOnUse" x="3.9" y="74.5" width="192.2" height="201.6">
						<feColorMatrix  type="matrix" values="1 0 0 0 0  0 1 0 0 0  0 0 1 0 0  0 0 0 1 0"/>
					</filter>
				</defs>
				<mask maskUnits="userSpaceOnUse" x="3.9" y="74.5" width="192.2" height="201.6" id="SVGID_19_">
					<g class="st6">
						<rect x="35" y="78.2" class="st7" width="130" height="143.3"/>
						<g class="st8">
							<g>
								<defs>
									<rect id="SVGID_20_" x="35" y="78.2" width="130" height="143.3"/>
								</defs>
								<clipPath id="SVGID_21_" class="st7">
									<use xlink:href="#SVGID_20_"  style="overflow:visible;"/>
								</clipPath>
								<path class="st9" d="M54.7,133.6l69.1,27.9c0,0-56.1,22.7-69.1,27.9C41.8,194.6,43.5,219,43.5,219l111.3-45l0-25.5
									L43.5,103.6C43.4,130.9,54.7,133.6,54.7,133.6"/>
								<path class="st9" d="M143.9,114.2C131,109,74.8,86.3,74.8,86.3l69.1-27.9c0,0,11.3-2.7,11.2-30L43.8,73.4l0,25.5l111.3,45
									C155.1,143.8,156.8,119.4,143.9,114.2"/>
							</g>
						</g>
					</g>
				</mask>
				<g class="st10">
					<g>
						<defs>
							<rect id="SVGID_22_" x="35" y="78.2" width="130" height="143.3"/>
						</defs>
						<clipPath id="SVGID_23_">
							<use xlink:href="#SVGID_22_"  style="overflow:visible;"/>
						</clipPath>
						<g class="st11">
							<defs>
								<polyline id="SVGID_24_" points="94.8,78.2 75.3,86.1 43.8,98.8 96.1,119.9 127.7,107.6 								"/>
							</defs>
							<clipPath id="SVGID_25_">
								<use xlink:href="#SVGID_24_"  style="overflow:visible;"/>
							</clipPath>
							<defs>
								<filter id="Adobe_OpacityMaskFilter_1_" filterUnits="userSpaceOnUse" x="42" y="74.5" width="87.5" height="49.2">
									<feColorMatrix  type="matrix" values="1 0 0 0 0  0 1 0 0 0  0 0 1 0 0  0 0 0 1 0"/>
								</filter>
							</defs>
							<mask maskUnits="userSpaceOnUse" x="42" y="74.5" width="87.5" height="49.2" id="SVGID_19_">
								<g class="st12">
									
										<linearGradient id="SVGID_26_" gradientUnits="userSpaceOnUse" x1="-395.6956" y1="-245.1327" x2="-394.6956" y2="-245.1327" gradientTransform="matrix(1.3678 30.6381 30.6381 -1.3678 8136.647 11870.6787)">
										<stop  offset="0" style="stop-color:#FFFFFF"/>
										<stop  offset="0.9951" style="stop-color:#000000"/>
										<stop  offset="1" style="stop-color:#000000"/>
									</linearGradient>
									<polygon class="st13" points="127.5,74.5 129.5,119.8 44,123.7 42,78.3 									"/>
								</g>
							</mask>
							
								<linearGradient id="SVGID_27_" gradientUnits="userSpaceOnUse" x1="-395.6956" y1="-245.1327" x2="-394.6956" y2="-245.1327" gradientTransform="matrix(1.3678 30.6381 30.6381 -1.3678 8136.647 11870.6787)">
								<stop  offset="0" style="stop-color:#000000"/>
								<stop  offset="0.9951" style="stop-color:#000000"/>
								<stop  offset="1" style="stop-color:#000000"/>
							</linearGradient>
							<polygon class="st14" points="127.5,74.5 129.5,119.8 44,123.7 42,78.3 							"/>
						</g>
						<g class="st11">
							<defs>
								<polygon id="SVGID_28_" points="113.7,165.6 154.8,148.6 92.2,123.3 84.7,145.7 								"/>
							</defs>
							<clipPath id="SVGID_29_">
								<use xlink:href="#SVGID_28_"  style="overflow:visible;"/>
							</clipPath>
							<defs>
								<filter id="Adobe_OpacityMaskFilter_2_" filterUnits="userSpaceOnUse" x="75.3" y="107.7" width="88.9" height="73.4">
									<feColorMatrix  type="matrix" values="1 0 0 0 0  0 1 0 0 0  0 0 1 0 0  0 0 0 1 0"/>
								</filter>
							</defs>
							<mask maskUnits="userSpaceOnUse" x="75.3" y="107.7" width="88.9" height="73.4" id="SVGID_30_">
								<g class="st15">
									
										<linearGradient id="SVGID_31_" gradientUnits="userSpaceOnUse" x1="-440.424" y1="-275.2886" x2="-439.424" y2="-275.2886" gradientTransform="matrix(-4.5624 -19.5171 -19.5171 4.5624 -7256.4424 -7169.4331)">
										<stop  offset="0" style="stop-color:#FFFFFF"/>
										<stop  offset="0.9951" style="stop-color:#000000"/>
										<stop  offset="1" style="stop-color:#000000"/>
									</linearGradient>
									<polygon class="st16" points="88.3,181.1 75.3,125.5 151.1,107.7 164.2,163.4 									"/>
								</g>
							</mask>
							
								<linearGradient id="SVGID_32_" gradientUnits="userSpaceOnUse" x1="-440.424" y1="-275.2886" x2="-439.424" y2="-275.2886" gradientTransform="matrix(-4.5624 -19.5171 -19.5171 4.5624 -7256.4419 -7169.4336)">
								<stop  offset="0" style="stop-color:#000000"/>
								<stop  offset="0.9951" style="stop-color:#000000"/>
								<stop  offset="1" style="stop-color:#000000"/>
							</linearGradient>
							<polygon class="st17" points="88.3,181.1 75.3,125.5 151.1,107.7 164.2,163.4 							"/>
						</g>
						<g class="st11">
							<defs>
								<polygon id="SVGID_33_" points="161,147.6 35,200 40.3,221.6 165,170.1 								"/>
							</defs>
							<clipPath id="SVGID_34_">
								<use xlink:href="#SVGID_33_"  style="overflow:visible;"/>
							</clipPath>
							<defs>
								<filter id="Adobe_OpacityMaskFilter_3_" filterUnits="userSpaceOnUse" x="3.9" y="93" width="192.2" height="183.2">
									<feColorMatrix  type="matrix" values="1 0 0 0 0  0 1 0 0 0  0 0 1 0 0  0 0 0 1 0"/>
								</filter>
							</defs>
							<mask maskUnits="userSpaceOnUse" x="3.9" y="93" width="192.2" height="183.2" id="SVGID_35_">
								<g class="st18">
									
										<linearGradient id="SVGID_36_" gradientUnits="userSpaceOnUse" x1="-424.8852" y1="-262.2937" x2="-423.8852" y2="-262.2937" gradientTransform="matrix(-23.5725 -43.3431 -43.3431 23.5725 -21261.5352 -12006.5811)">
										<stop  offset="0" style="stop-color:#FFFFFF"/>
										<stop  offset="0.9951" style="stop-color:#000000"/>
										<stop  offset="1" style="stop-color:#000000"/>
									</linearGradient>
									<polygon class="st19" points="64.7,276.2 3.9,164.5 135.3,93 196.1,204.7 									"/>
								</g>
							</mask>
							
								<linearGradient id="SVGID_37_" gradientUnits="userSpaceOnUse" x1="-424.8852" y1="-262.2937" x2="-423.8852" y2="-262.2937" gradientTransform="matrix(-23.5725 -43.3431 -43.3431 23.5725 -21261.5352 -12006.5811)">
								<stop  offset="0" style="stop-color:#000000"/>
								<stop  offset="0.9951" style="stop-color:#000000"/>
								<stop  offset="1" style="stop-color:#000000"/>
							</linearGradient>
							<polygon class="st20" points="64.7,276.2 3.9,164.5 135.3,93 196.1,204.7 							"/>
						</g>
					</g>
				</g>
			</g>
		</g>
	</g>
</g>
</svg>
